HIERARCHY
ROOT joint_Root
{
	OFFSET 0.0 0.0 0.0
	CHANNELS 6 Xposition Yposition Zposition Zrotation Xrotation Yrotation 
	JOINT Hips
	{
		OFFSET -17.1583 93.1646 452.98
		CHANNELS 6 Xposition Yposition Zposition Zrotation Xrotation Yrotation 
		JOINT Spine
		{
			OFFSET 15.7357 0.0 0.0
			CHANNELS 6 Xposition Yposition Zposition Zrotation Xrotation Yrotation 
			JOINT Chest
			{
				OFFSET 8.98455 -0.406207 0.0
				CHANNELS 6 Xposition Yposition Zposition Zrotation Xrotation Yrotation 
				JOINT Neck
				{
					OFFSET 16.3773 0.0 0.0
					CHANNELS 6 Xposition Yposition Zposition Zrotation Xrotation Yrotation 
					JOINT Head
					{
						OFFSET 6.45672 0.0 0.0
						CHANNELS 6 Xposition Yposition Zposition Zrotation Xrotation Yrotation 
						End Site
						{
							OFFSET 0.0 0.0 0.0
						}
					}
				}
				JOINT Shoulder_L
				{
					OFFSET 12.9942 -0.242716 4.98039
					CHANNELS 6 Xposition Yposition Zposition Zrotation Xrotation Yrotation 
					JOINT UpperArm_L
					{
						OFFSET 5.34809 0.0 0.0
						CHANNELS 6 Xposition Yposition Zposition Zrotation Xrotation Yrotation 
						JOINT LowerArm_L
						{
							OFFSET 24.3286 1.87007e-05 0.0
							CHANNELS 6 Xposition Yposition Zposition Zrotation Xrotation Yrotation 
							JOINT Hand_L
							{
								OFFSET 22.2916 0.0 0.0
								CHANNELS 6 Xposition Yposition Zposition Zrotation Xrotation Yrotation 
								End Site
								{
									OFFSET 0.0 0.0 0.0
								}
							}
						}
					}
				}
				JOINT Shoulder_R
				{
					OFFSET 12.9945 -0.242716 -4.98039
					CHANNELS 6 Xposition Yposition Zposition Zrotation Xrotation Yrotation 
					JOINT UpperArm_R
					{
						OFFSET -5.34813 0.0 0.0
						CHANNELS 6 Xposition Yposition Zposition Zrotation Xrotation Yrotation 
						JOINT LowerArm_R
						{
							OFFSET -24.3289 0.000322201 0.0
							CHANNELS 6 Xposition Yposition Zposition Zrotation Xrotation Yrotation 
							JOINT Hand_R
							{
								OFFSET -22.2915 -0.000108084 0.0
								CHANNELS 6 Xposition Yposition Zposition Zrotation Xrotation Yrotation 
								End Site
								{
									OFFSET 0.0 0.0 0.0
								}
							}
						}
					}
				}
			}
		}
		JOINT UpperLeg_L
		{
			OFFSET -2.19248 -6.46944 0.0
			CHANNELS 6 Xposition Yposition Zposition Zrotation Xrotation Yrotation 
			JOINT LowerLeg_L
			{
				OFFSET 39.0811 0.0 -1.23785e-05
				CHANNELS 6 Xposition Yposition Zposition Zrotation Xrotation Yrotation 
				JOINT Foot_L
				{
					OFFSET 40.9854 0.0 -1.26872e-05
					CHANNELS 6 Xposition Yposition Zposition Zrotation Xrotation Yrotation 
					JOINT Toes_L
					{
						OFFSET 11.7543 0.0 0.0
						CHANNELS 6 Xposition Yposition Zposition Zrotation Xrotation Yrotation 
						End Site
						{
							OFFSET 0.0 0.0 0.0
						}
					}
				}
			}
		}
		JOINT UpperLeg_R
		{
			OFFSET -2.19251 6.46944 0.0
			CHANNELS 6 Xposition Yposition Zposition Zrotation Xrotation Yrotation 
			JOINT LowerLeg_R
			{
				OFFSET -39.0811 -0.00228153 -0.0401928
				CHANNELS 6 Xposition Yposition Zposition Zrotation Xrotation Yrotation 
				JOINT Foot_R
				{
					OFFSET -40.9854 0.0 0.0
					CHANNELS 6 Xposition Yposition Zposition Zrotation Xrotation Yrotation 
					JOINT Toes_R
					{
						OFFSET -11.7543 0.0 0.0
						CHANNELS 6 Xposition Yposition Zposition Zrotation Xrotation Yrotation 
						End Site
						{
							OFFSET 0.0 0.0 0.0
						}
					}
				}
			}
		}
	}
}
MOTION
Frames:	4
Frame Time:	0.0333333
0.000000 0.000000 0.000000 0.000000 0.000000 -0.000000 1.938700 85.904500 462.375000 -89.419100 2.196760 160.971000 15.735700 0.000005 -0.000001 103.331000 80.471500 -102.046000 8.984550 -0.406207 -0.000000 10.752200 4.396110 2.156270 16.377300 -0.000001 -0.000001 -6.181520 1.097150 1.041970 6.456720 -0.000001 -0.000000 -20.192100 1.003370 -3.849210 12.994200 -0.242716 4.980390 -92.777600 7.377450 -69.302200 5.348090 -0.000007 -0.000001 -42.567700 -18.835600 16.028300 24.328600 0.000019 0.000005 2.411560 33.808200 -4.327740 22.291600 -0.000001 0.000005 2.333480 4.751820 12.177900 12.994500 -0.242716 -4.980390 90.121900 -0.411920 -73.515900 -5.348130 -0.000001 -0.000004 -54.591500 -2.105000 -28.409700 -24.328900 0.000322 -0.000009 -9.650170 -2.629870 -74.890700 -22.291500 -0.000108 -0.000004 16.913800 5.525600 -7.596760 -2.192480 -6.469440 -0.000000 -179.987000 -1.027820 -59.777700 39.081100 -0.000007 -0.000012 0.070981 -0.003953 86.805400 40.985400 -0.000006 -0.000013 -5.184410 2.235870 -62.037900 11.754300 -0.000000 0.000003 0.002142 0.052566 -14.444600 -2.192510 6.469440 -0.000001 177.348000 10.239100 168.560000 -39.081100 -0.002282 -0.040193 0.052868 -0.066612 36.661400 -40.985400 0.000008 0.000006 -9.484120 12.848000 -74.982900 -11.754300 -0.000006 -0.000006 -0.032577 -0.229039 -25.962800
0.000000 0.000000 0.000000 0.000000 0.000000 -0.000000 1.229750 88.389800 455.187000 -92.545400 1.963740 157.945000 15.735700 0.000005 -0.000001 106.875000 81.834900 -106.886000 8.984550 -0.406207 -0.000000 7.881660 4.720620 -0.348381 16.377300 -0.000001 -0.000001 -6.062540 0.243719 0.989367 6.456720 -0.000001 -0.000000 -18.430900 -1.091600 -2.984380 12.994200 -0.242716 4.980390 -92.087400 5.712210 -69.887900 5.348090 -0.000007 -0.000001 -39.879400 -21.138800 18.506700 24.328600 0.000019 0.000005 0.738872 26.797700 -1.636960 22.291600 -0.000001 0.000005 21.644000 4.490780 16.621400 12.994500 -0.242716 -4.980390 90.381500 -1.308800 -73.745500 -5.348130 -0.000001 -0.000004 -56.938500 -3.923270 -24.581900 -24.328900 0.000322 -0.000009 -12.203000 -1.973620 -80.950000 -22.291500 -0.000108 -0.000004 19.678400 5.622880 -12.759600 -2.192480 -6.469440 -0.000000 177.055000 0.671840 -63.079700 39.081100 -0.000007 -0.000012 0.026066 -0.007656 73.618900 40.985400 -0.000006 -0.000013 -5.725700 3.140360 -66.931200 11.754300 -0.000000 0.000003 0.002126 0.051852 -14.473500 -2.192510 6.469440 -0.000001 174.354000 12.232100 172.629000 -39.081100 -0.002282 -0.040193 0.056858 -0.105046 27.011500 -40.985400 0.000008 0.000006 -7.066330 10.680900 -60.503900 -11.754300 -0.000006 -0.000006 -0.102486 -0.450682 -35.395300
0.000000 0.000000 0.000000 0.000000 0.000000 -0.000000 0.745986 90.343100 447.831000 -94.027800 1.809860 155.556000 15.735700 0.000005 -0.000001 112.307000 82.932000 -113.097000 8.984550 -0.406207 -0.000000 5.368210 5.370170 -1.831820 16.377300 -0.000001 -0.000001 -5.770270 -0.393407 0.940748 6.456720 -0.000001 -0.000000 -17.105600 -2.679870 -2.299590 12.994200 -0.242716 4.980390 -91.586100 4.422300 -70.246900 5.348090 -0.000007 -0.000001 -39.744900 -23.587800 18.426600 24.328600 0.000019 0.000005 -0.000031 24.561900 -0.000000 22.291600 -0.000001 0.000005 43.397100 3.862290 26.054900 12.994500 -0.242716 -4.980390 90.598600 -2.149810 -74.436100 -5.348130 -0.000001 -0.000004 -58.410900 -3.064180 -20.322100 -24.328900 0.000322 -0.000009 -11.796600 -1.500710 -82.850400 -22.291500 -0.000108 -0.000004 23.671400 5.640480 -14.166600 -2.192480 -6.469440 -0.000000 176.160000 1.489130 -62.760200 39.081100 -0.000007 -0.000012 0.002212 -0.001420 57.212000 40.985400 -0.000006 -0.000013 -6.400490 7.796300 -70.731600 11.754300 -0.000000 0.000003 0.002388 0.067026 -13.858300 -2.192510 6.469440 -0.000001 173.400000 12.215700 175.649000 -39.081100 -0.002282 -0.040193 0.046165 -0.122163 19.325600 -40.985400 0.000008 0.000006 -2.623290 7.738500 -44.166400 -11.754300 -0.000006 -0.000006 -0.123661 -0.499831 -37.565100
0.000000 0.000000 0.000000 0.000000 0.000000 -0.000000 0.821739 90.928700 439.617000 -92.597300 0.159842 156.394000 15.735700 0.000005 -0.000001 114.594000 82.941600 -114.915000 8.984550 -0.406207 -0.000000 5.107940 5.870580 -0.904087 16.377300 -0.000001 -0.000001 -5.401930 -0.744142 1.192390 6.456720 -0.000001 -0.000000 -17.091800 -3.443080 -2.195120 12.994200 -0.242716 4.980390 -91.653300 4.583560 -70.141200 5.348090 -0.000007 -0.000001 -41.124800 -25.844600 15.908200 24.328600 0.000019 0.000005 0.000092 25.771900 -0.000000 22.291600 -0.000001 0.000005 54.623300 3.424670 31.903800 12.994500 -0.242716 -4.980390 90.666800 -2.409640 -74.527100 -5.348130 -0.000001 -0.000004 -60.091300 -0.298793 -17.275600 -24.328900 0.000322 -0.000009 -10.944800 -2.134350 -79.096600 -22.291500 -0.000108 -0.000004 21.173500 5.618810 -12.513700 -2.192480 -6.469440 -0.000000 177.953000 1.050320 -58.020600 39.081100 -0.000007 -0.000012 -0.031088 0.033150 43.163700 40.985400 -0.000006 -0.000013 -6.593480 11.720300 -74.508900 11.754300 -0.000000 0.000003 0.002447 0.073109 -13.611700 -2.192510 6.469440 -0.000001 175.941000 8.812340 179.551000 -39.081100 -0.002282 -0.040193 0.035765 -0.104233 17.286900 -40.985400 0.000008 0.000006 0.279939 3.011320 -30.495800 -11.754300 -0.000006 -0.000006 -0.020811 -0.171741 -23.591300
